<?xml version="1.0" encoding="UTF-8" standalone="no"?>
<!DOCTYPE svg PUBLIC "-//W3C//DTD SVG 1.1//EN" "http://www.w3.org/Graphics/SVG/1.1/DTD/svg11.dtd">
<svg xmlns="http://www.w3.org/2000/svg" version="1.1" viewBox="0.00 0.00 316.00 249.00">
<path fill="#66bc8a" d="
  M 141.49 16.72
  C 173.97 11.96 203.62 20.81 229.88 39.88
  C 238.60 46.21 245.95 54.61 252.53 63.18
  C 260.55 73.64 265.63 85.68 269.30 98.29
  Q 280.14 135.47 265.82 171.32
  C 260.01 185.88 251.61 197.39 240.96 208.14
  C 225.46 223.79 196.46 241.98 173.58 231.56
  C 157.47 224.22 153.71 205.98 152.87 189.88
  Q 151.98 173.01 154.03 147.89
  A 0.27 0.27 0.0 0 1 154.30 147.64
  L 154.57 147.63
  Q 154.82 147.63 154.84 147.88
  Q 155.04 150.24 155.00 152.50
  Q 154.70 169.00 155.28 185.50
  C 155.82 201.25 159.91 224.14 178.75 228.01
  C 201.60 232.70 223.19 214.95 237.31 199.28
  Q 239.84 196.46 246.55 185.35
  C 265.42 154.06 265.47 114.69 245.51 83.79
  C 240.95 76.73 236.41 70.30 230.19 64.56
  Q 227.27 61.85 216.76 54.45
  C 201.06 43.40 181.33 38.73 161.32 39.43
  C 144.58 40.01 129.33 44.79 115.34 54.10
  C 109.07 58.27 102.98 62.55 98.01 68.16
  C 87.00 80.61 78.70 94.67 75.73 111.25
  C 70.90 138.19 76.16 164.45 94.48 185.53
  C 98.70 190.38 104.25 195.43 106.70 199.92
  Q 113.26 211.94 102.80 222.55
  C 95.36 230.11 82.30 228.42 75.09 220.67
  Q 63.60 208.34 55.13 193.79
  Q 53.49 190.98 48.97 179.53
  C 34.65 143.24 39.03 102.66 59.87 69.84
  C 64.63 62.35 71.43 54.89 77.66 48.42
  C 83.35 42.52 90.02 38.39 96.94 33.81
  C 110.19 25.06 126.45 18.93 141.49 16.72
  Z"
/>
<path fill="#66bc8a" d="
  M 125.58 100.69
  C 144.50 87.79 167.02 88.67 185.01 102.17
  Q 185.96 102.88 185.23 103.81
  L 182.83 106.83
  Q 182.06 107.80 181.06 107.07
  C 165.22 95.57 146.25 94.77 129.45 105.70
  Q 128.54 106.30 127.87 105.43
  L 125.35 102.14
  Q 124.69 101.29 125.58 100.69
  Z"
/>
<path fill="#66bc8a" d="
  M 166.40 112.44
  Q 150.87 106.75 137.35 115.09
  Q 136.30 115.74 135.54 114.77
  L 133.00 111.53
  Q 132.22 110.55 133.34 109.97
  C 148.64 102.10 162.99 101.76 177.50 111.57
  Q 178.21 112.06 177.66 112.72
  L 174.53 116.50
  Q 173.97 117.18 173.26 116.66
  C 170.97 114.98 169.17 113.46 166.40 112.44
  Z"
/>
<path fill="#66bc8a" d="
  M 149.51 154.93
  C 148.49 169.84 132.28 168.61 123.75 161.27
  C 117.66 156.02 113.03 151.18 110.19 143.80
  Q 103.71 126.92 98.95 119.31
  Q 96.23 114.95 92.45 112.24
  Q 91.55 111.59 92.65 111.71
  C 116.31 114.30 142.52 124.82 149.27 150.26
  Q 149.71 151.93 149.51 154.93
  Z
  M 132.04 131.17
  C 128.68 128.46 122.87 124.73 118.52 124.14
  Q 116.74 123.90 118.02 125.17
  C 127.09 134.17 135.39 142.19 141.80 153.06
  Q 143.85 156.54 143.56 152.51
  C 142.94 144.21 138.59 136.45 132.04 131.17
  Z"
/>
<path fill="#66bc8a" d="
  M 163.78 144.61
  C 174.03 122.93 195.94 114.03 218.35 111.80
  Q 219.29 111.70 218.59 112.34
  C 209.70 120.38 204.81 133.86 200.28 144.82
  Q 195.24 157.02 184.32 163.55
  C 169.25 172.56 156.27 160.48 163.78 144.61
  Z
  M 170.78 149.93
  Q 178.02 137.84 188.76 128.74
  Q 190.89 126.93 191.32 126.51
  Q 194.71 123.21 190.21 124.68
  C 176.60 129.14 167.53 139.58 167.21 154.23
  Q 167.20 154.52 167.50 154.53
  Q 167.92 154.55 168.15 154.18
  Q 169.50 152.07 170.78 149.93
  Z"
/>
<path fill="#66bc8a" d="
  M 145.25 125.07
  Q 143.97 125.68 143.09 124.56
  L 140.93 121.79
  Q 139.97 120.56 141.35 119.81
  Q 155.78 112.03 169.41 121.06
  Q 170.59 121.85 169.73 122.97
  L 167.45 125.97
  Q 166.65 127.00 165.56 126.30
  Q 155.76 120.03 145.25 125.07
  Z"
/>
<path fill="#66bc8a" d="
  M 158.40 134.52
  C 155.17 132.80 153.92 133.37 151.01 134.02
  A 0.87 0.86 61.8 0 1 150.19 133.77
  L 147.05 130.50
  A 0.88 0.88 0.0 0 1 147.31 129.10
  Q 155.31 125.33 162.71 130.10
  Q 163.57 130.65 162.86 131.40
  L 160.19 134.23
  Q 159.40 135.06 158.40 134.52
  Z"
/>
</svg>
