<?xml version="1.0" standalone="no"?>
<!DOCTYPE svg PUBLIC "-//W3C//DTD SVG 20010904//EN"
 "http://www.w3.org/TR/2001/REC-SVG-20010904/DTD/svg10.dtd">
<svg version="1.0" xmlns="http://www.w3.org/2000/svg"
 width="940.000000pt" height="788.000000pt" viewBox="0 0 940.000000 788.000000"
 preserveAspectRatio="xMidYMid meet">

<g transform="translate(0.000000,788.000000) scale(0.100000,-0.100000)"
fill="#000000" stroke="none">
<path d="M4668 7030 c-175 -31 -323 -140 -416 -303 -23 -40 -97 -202 -166
-362 -118 -275 -344 -800 -1161 -2700 -196 -456 -390 -906 -430 -1000 -40 -93
-138 -321 -217 -505 -190 -440 -193 -449 -193 -580 0 -127 8 -144 124 -282
120 -144 160 -171 293 -207 40 -11 323 -68 628 -126 305 -58 661 -126 790
-151 588 -113 652 -121 773 -89 61 16 145 55 177 82 21 19 28 39 8 27 -8 -5
-9 -2 -5 9 15 37 19 52 10 41 -4 -5 -18 -10 -30 -10 -21 0 -28 13 -24 39 1 5
-3 6 -8 3 -5 -4 -13 3 -16 15 -4 12 -12 18 -21 15 -26 -10 -14 14 29 62 78 85
98 114 92 131 -3 8 -3 12 1 8 9 -9 20 14 88 171 27 61 52 112 57 112 5 0 9 -2
9 -4 0 -6 -64 -154 -89 -206 -13 -27 -17 -46 -11 -48 5 -2 8 -7 5 -12 -3 -4 2
-13 10 -20 8 -7 15 -21 15 -31 0 -11 5 -19 12 -19 6 0 23 -14 38 -32 l26 -31
20 34 c26 44 63 132 412 974 160 385 447 1076 637 1535 191 459 366 882 390
940 23 58 164 398 312 755 289 693 336 812 346 862 5 27 -1 41 -45 100 -28 37
-52 70 -54 72 -2 2 -8 -9 -14 -25 -47 -127 -83 -214 -87 -210 -3 3 8 38 25 78
74 180 90 290 56 391 -20 59 -79 126 -140 159 -87 47 -95 48 -864 163 -278 42
-577 87 -665 100 -411 63 -501 75 -587 79 -51 3 -114 1 -140 -4z m292 -166
c58 -9 122 -20 144 -25 37 -10 38 -11 32 -47 -28 -159 -14 -190 99 -221 42
-11 715 -115 823 -127 115 -12 206 36 257 136 37 73 49 74 282 35 162 -28 230
-53 273 -101 60 -69 62 -157 5 -304 -18 -47 -336 -814 -708 -1705 -371 -891
-819 -1969 -997 -2395 -177 -426 -338 -806 -358 -844 -21 -39 -62 -96 -93
-127 -76 -76 -142 -102 -264 -103 -91 -1 -247 22 -239 35 2 4 -4 5 -14 2 -10
-2 -88 9 -173 25 -85 17 -255 49 -379 72 -124 24 -226 47 -228 51 -2 4 -9 6
-16 3 -15 -6 -826 145 -943 175 -97 25 -156 61 -189 117 -39 67 -32 163 23
299 22 55 309 726 637 1490 329 765 762 1773 963 2240 201 468 388 902 415
965 86 199 146 283 239 331 98 51 182 55 409 23z m1619 -1785 c-209 -502 -388
-934 -399 -959 -10 -25 -30 -72 -44 -105 -39 -92 -450 -1083 -712 -1715 -129
-311 -243 -585 -254 -610 -10 -25 -31 -74 -46 -110 -30 -72 -44 -93 -44 -68 0
9 18 59 40 110 43 102 311 748 524 1263 76 182 143 344 150 360 8 17 75 179
150 360 76 182 141 339 146 350 5 11 54 128 108 260 82 198 179 431 222 530 5
11 16 38 25 60 9 22 21 48 26 58 5 9 16 38 25 64 9 25 31 78 49 117 19 39 115
267 215 506 100 239 184 439 187 443 31 53 -45 -136 -368 -914z m91 -3 c0 -2
-8 -10 -17 -17 -16 -13 -17 -12 -4 4 13 16 21 21 21 13z m-46 -73 c-8 -21 -72
-174 -141 -341 -69 -166 -128 -300 -131 -297 -3 3 13 49 36 102 23 54 84 201
137 328 100 238 103 245 111 245 2 0 -3 -17 -12 -37z m-4217 -3759 c-3 -3 -12
-4 -19 -1 -8 3 -5 6 6 6 11 1 17 -2 13 -5z m100 -20 c-3 -3 -12 -4 -19 -1 -8
3 -5 6 6 6 11 1 17 -2 13 -5z m150 -30 c-3 -3 -12 -4 -19 -1 -8 3 -5 6 6 6 11
1 17 -2 13 -5z m110 -20 c-3 -3 -12 -4 -19 -1 -8 3 -5 6 6 6 11 1 17 -2 13 -5z
m150 -30 c-3 -3 -12 -4 -19 -1 -8 3 -5 6 6 6 11 1 17 -2 13 -5z m530 -100 c-3
-3 -12 -4 -19 -1 -8 3 -5 6 6 6 11 1 17 -2 13 -5z m-32 -80 c72 -13 141 -24
155 -24 15 0 20 -4 15 -9 -12 -11 -265 34 -310 55 -16 8 -21 12 -10 8 11 -3
79 -16 150 -30z"/>
<path d="M4637 6773 c-10 -9 -9 -23 1 -23 5 0 9 7 9 15 0 17 -1 18 -10 8z"/>
<path d="M4662 6773 c4 -19 -15 -41 -29 -36 -11 4 -14 2 -9 -5 10 -16 22 -15
40 4 18 17 21 44 6 44 -5 0 -9 -3 -8 -7z"/>
<path d="M4716 6751 c-13 -15 -14 -20 -3 -29 8 -7 18 -7 27 -2 8 6 11 10 7 10
-4 0 -3 9 3 20 14 27 -10 28 -34 1z m24 -5 c0 -3 -4 -8 -10 -11 -5 -3 -10 -1
-10 4 0 6 5 11 10 11 6 0 10 -2 10 -4z"/>
<path d="M4772 6733 c-1 -22 0 -24 8 -13 12 18 13 40 2 40 -4 0 -9 -12 -10
-27z"/>
<path d="M4572 6521 c15 -5 51 -12 80 -15 37 -4 45 -3 26 3 -15 5 -51 12 -80
15 -37 4 -45 3 -26 -3z"/>
<path d="M6399 6493 c-15 -40 -4 -52 14 -16 20 37 21 43 7 43 -6 0 -15 -12
-21 -27z"/>
<path d="M6361 6488 c-5 -13 -7 -25 -4 -28 5 -6 33 30 33 42 0 17 -21 7 -29
-14z"/>
<path d="M6454 6499 c-5 -9 1 -10 21 -5 18 5 35 2 51 -9 20 -13 24 -13 24 -1
0 25 -81 38 -96 15z"/>
<path d="M6326 6484 c-9 -22 3 -32 14 -14 12 19 12 30 1 30 -5 0 -12 -7 -15
-16z"/>
<path d="M6290 6480 c0 -5 5 -10 10 -10 6 0 10 5 10 10 0 6 -4 10 -10 10 -5 0
-10 -4 -10 -10z"/>
<path d="M4570 6471 c61 -15 114 -21 104 -11 -5 5 -38 11 -74 14 -48 4 -56 3
-30 -3z"/>
<path d="M6480 6470 c36 -11 52 -11 45 0 -3 6 -21 10 -38 9 -31 -1 -31 -1 -7
-9z"/>
<path d="M6581 6459 c-9 -27 -3 -30 76 -42 37 -6 44 -4 54 14 15 29 4 36 -63
44 -55 7 -58 6 -67 -16z"/>
<path d="M6475 6450 c-3 -5 1 -10 9 -10 9 0 16 5 16 10 0 6 -4 10 -9 10 -6 0
-13 -4 -16 -10z"/>
<path d="M4526 6431 c11 -5 47 -12 80 -15 44 -4 50 -3 24 3 -56 14 -128 22
-104 12z"/>
<path d="M6598 6269 c-23 -13 -23 -55 -2 -63 9 -4 28 1 41 9 48 32 9 83 -39
54z m23 -42 c-8 -8 -11 -5 -11 9 0 27 14 41 18 19 2 -9 -1 -22 -7 -28z"/>
<path d="M5060 5974 c0 -8 5 -12 10 -9 6 4 8 11 5 16 -9 14 -15 11 -15 -7z"/>
<path d="M5113 5945 c0 -8 4 -12 9 -9 4 3 8 9 8 15 0 5 -4 9 -8 9 -5 0 -9 -7
-9 -15z"/>
<path d="M5085 5939 c-4 -6 -5 -12 -2 -15 2 -3 7 2 10 11 7 17 1 20 -8 4z"/>
<path d="M5166 5935 c-9 -26 -7 -32 5 -12 6 10 9 21 6 23 -2 3 -7 -2 -11 -11z"/>
<path d="M5193 5935 c0 -8 4 -12 9 -9 5 3 6 10 3 15 -9 13 -12 11 -12 -6z"/>
<path d="M5233 5933 c12 -3 16 -10 12 -21 -3 -9 -3 -13 1 -9 4 4 17 -1 28 -10
12 -10 16 -11 9 -4 -6 7 -9 21 -6 30 4 14 3 14 -6 1 -9 -13 -11 -13 -11 3 0
11 -7 17 -22 16 -19 -1 -19 -2 -5 -6z"/>
<path d="M5206 5905 c-9 -26 -7 -32 5 -12 6 10 9 21 6 23 -2 3 -7 -2 -11 -11z"/>
<path d="M5373 5898 c-2 -18 0 -20 7 -8 12 18 13 30 2 30 -4 0 -9 -10 -9 -22z"/>
<path d="M5400 5905 c0 -8 2 -15 4 -15 2 0 6 7 10 15 3 8 1 15 -4 15 -6 0 -10
-7 -10 -15z"/>
<path d="M5431 5883 c-1 -16 5 -23 17 -23 10 0 13 3 6 8 -6 4 -14 14 -17 22
-4 10 -6 8 -6 -7z"/>
<path d="M5485 5889 c-4 -6 -5 -12 -2 -15 2 -3 7 2 10 11 7 17 1 20 -8 4z"/>
<path d="M5536 5887 c3 -10 9 -15 12 -12 3 3 0 11 -7 18 -10 9 -11 8 -5 -6z"/>
<path d="M5786 5855 c-9 -25 -8 -27 17 -23 12 2 22 10 22 18 0 21 -31 24 -39
5z m34 -5 c0 -5 -7 -10 -16 -10 -8 0 -12 5 -9 10 3 6 10 10 16 10 5 0 9 -4 9
-10z"/>
<path d="M5103 5843 c28 -7 20 -32 -20 -55 l-36 -22 28 -8 c32 -8 47 -2 27 11
-10 6 -6 12 12 25 36 23 35 56 -1 55 -17 -1 -21 -3 -10 -6z"/>
<path d="M5836 5833 c-6 -14 -5 -15 5 -6 7 7 10 15 7 18 -3 3 -9 -2 -12 -12z"/>
<path d="M5173 5814 c-38 -29 -42 -44 -12 -44 15 0 19 -5 15 -15 -7 -18 1 -19
18 -2 15 15 31 87 19 87 -4 0 -23 -12 -40 -26z m21 -18 c-3 -9 -13 -16 -22
-16 -13 0 -12 3 3 20 20 23 29 21 19 -4z"/>
<path d="M5867 5833 c-4 -3 -7 -15 -7 -25 0 -19 25 -25 35 -8 3 6 -1 7 -9 4
-11 -4 -16 0 -16 11 0 12 6 16 20 12 11 -3 18 -1 14 4 -6 11 -28 12 -37 2z"/>
<path d="M5250 5815 c-12 -14 -6 -35 10 -35 14 0 41 31 35 41 -9 14 -31 11
-45 -6z m30 -3 c0 -13 -12 -22 -22 -16 -10 6 -1 24 13 24 5 0 9 -4 9 -8z"/>
<path d="M5916 5815 c-9 -26 -7 -32 5 -12 6 10 9 21 6 23 -2 3 -7 -2 -11 -11z"/>
<path d="M5997 5801 c-4 -17 -3 -21 5 -13 5 5 8 16 6 23 -3 8 -7 3 -11 -10z"/>
<path d="M6070 5810 c0 -5 5 -10 11 -10 5 0 7 5 4 10 -3 6 -8 10 -11 10 -2 0
-4 -4 -4 -10z"/>
<path d="M5351 5784 c-12 -15 -21 -32 -21 -38 0 -19 22 -36 45 -35 19 0 19 1
-2 11 -13 6 -23 19 -23 28 0 25 36 53 60 47 11 -3 20 -1 20 4 0 5 -13 9 -29 9
-20 0 -36 -9 -50 -26z"/>
<path d="M6033 5785 c0 -8 4 -12 9 -9 5 3 6 10 3 15 -9 13 -12 11 -12 -6z"/>
<path d="M6125 5790 c-3 -6 1 -7 9 -4 18 7 21 14 7 14 -6 0 -13 -4 -16 -10z"/>
<path d="M6061 5774 c0 -11 3 -14 6 -6 3 7 2 16 -1 19 -3 4 -6 -2 -5 -13z"/>
<path d="M6163 5775 c-3 -9 -3 -18 -1 -21 3 -3 8 4 11 16 6 23 -1 27 -10 5z"/>
<path d="M6194 5771 c0 -11 4 -17 8 -15 4 3 8 12 8 20 0 8 -4 14 -8 14 -4 0
-8 -9 -8 -19z"/>
<path d="M5660 5730 c-12 -23 -19 -47 -16 -53 2 -7 10 3 17 21 17 42 29 41 29
-3 0 -50 25 -45 46 10 9 25 14 48 11 51 -3 3 -11 -11 -18 -30 -16 -45 -29 -46
-29 -2 0 51 -16 53 -40 6z"/>
<path d="M6117 5759 c7 -7 15 -10 18 -7 3 3 -2 9 -12 12 -14 6 -15 5 -6 -5z"/>
<path d="M5850 5694 c-11 -26 -20 -48 -20 -49 0 -2 12 -6 26 -9 45 -12 90 52
48 68 -12 5 -14 1 -9 -15 7 -20 -9 -49 -26 -49 -11 0 -12 34 -2 44 8 8 16 56
9 56 -3 0 -14 -21 -26 -46z"/>
<path d="M5761 5702 c-17 -33 -13 -49 14 -55 21 -3 29 1 41 25 8 16 13 35 11
41 -3 7 -9 0 -15 -15 -12 -30 -27 -42 -42 -33 -7 4 -6 13 1 26 6 12 8 23 6 26
-3 2 -10 -4 -16 -15z"/>
<path d="M5957 5708 c-3 -7 -12 -30 -21 -50 -9 -21 -12 -38 -7 -38 10 0 46 89
38 96 -2 3 -7 -1 -10 -8z"/>
<path d="M6134 5686 c-4 -9 -17 -16 -33 -16 -33 0 -51 -17 -51 -47 0 -19 5
-23 30 -23 27 0 33 6 51 46 11 26 17 49 14 52 -2 3 -7 -3 -11 -12z m-24 -38
c0 -24 -18 -41 -34 -35 -14 5 -15 11 -6 27 12 22 40 27 40 8z"/>
<path d="M6003 5683 c18 -5 19 -15 2 -55 -4 -10 -3 -18 3 -18 13 0 36 56 27
69 -3 6 -16 10 -28 10 -18 -1 -19 -2 -4 -6z"/>
<path d="M6157 5642 c-36 -40 -5 -76 40 -47 16 11 23 24 21 38 -4 29 -39 34
-61 9z m43 -11 c0 -10 -7 -24 -15 -31 -12 -10 -16 -9 -21 4 -6 16 11 46 27 46
5 0 9 -8 9 -19z"/>
<path d="M5965 5640 c-7 -11 2 -30 13 -30 4 0 8 9 8 20 0 21 -11 26 -21 10z"/>
<path d="M4091 5516 c-32 -34 -25 -70 14 -73 27 -2 28 -2 8 7 -44 18 -22 70
30 70 16 0 26 4 22 10 -11 18 -51 10 -74 -14z"/>
<path d="M4261 5475 c-24 -53 -24 -55 -13 -55 9 0 46 89 39 96 -3 3 -15 -16
-26 -41z"/>
<path d="M4171 5482 c-17 -33 -13 -49 14 -55 21 -3 29 1 40 24 17 33 18 39 6
39 -5 0 -12 -11 -15 -25 -4 -16 -13 -25 -26 -25 -23 0 -24 4 -9 32 6 11 8 22
6 25 -3 2 -10 -4 -16 -15z"/>
<path d="M4312 5487 c-17 -20 -26 -73 -14 -81 5 -3 10 6 10 21 0 14 6 32 15
38 9 6 12 16 8 24 -6 9 -10 9 -19 -2z"/>
<path d="M4352 5445 c-14 -30 -16 -54 -4 -39 15 17 32 64 23 64 -4 0 -13 -11
-19 -25z"/>
<path d="M4401 5455 c0 -11 -4 -30 -7 -42 -4 -14 -2 -23 5 -23 14 0 60 50 60
65 0 6 -10 -3 -24 -19 l-23 -29 -5 34 c-2 19 -5 25 -6 14z"/>
<path d="M4477 5432 c-21 -23 -21 -36 -2 -52 22 -18 67 13 63 43 -4 29 -39 34
-61 9z m41 -14 c-2 -13 -11 -24 -20 -26 -21 -4 -24 18 -6 36 19 19 30 14 26
-10z"/>
<path d="M4017 5216 c-4 -10 -7 -19 -7 -20 0 -1 12 -2 28 -1 26 0 50 20 38 32
-3 4 -6 1 -6 -5 0 -16 -37 -15 -42 0 -3 7 -7 5 -11 -6z"/>
<path d="M5680 5195 c-19 -22 -8 -25 13 -3 9 10 13 18 8 18 -5 0 -14 -7 -21
-15z"/>
<path d="M4173 5193 c9 -2 17 -9 17 -14 0 -6 5 -7 10 -4 16 10 1 25 -23 24
-17 -1 -18 -2 -4 -6z"/>
<path d="M4263 5178 c-20 -26 -23 -37 -12 -44 8 -4 9 -3 5 4 -5 8 2 12 18 12
18 0 26 5 25 18 0 10 -3 12 -6 5 -2 -7 -12 -13 -20 -13 -13 0 -13 3 -3 15 7 8
10 15 7 15 -2 0 -9 -6 -14 -12z"/>
<path d="M4362 5174 c-7 -8 -10 -14 -7 -14 3 0 1 -9 -5 -20 -6 -11 -8 -20 -6
-20 7 0 39 61 34 65 -2 2 -9 -3 -16 -11z"/>
<path d="M4117 5173 c-4 -3 -7 -11 -7 -17 0 -6 5 -5 12 2 6 6 9 14 7 17 -3 3
-9 2 -12 -2z"/>
<path d="M4146 5163 c-6 -14 -5 -15 5 -6 7 7 10 15 7 18 -3 3 -9 -2 -12 -12z"/>
<path d="M4315 5159 c-4 -6 -5 -12 -2 -15 2 -3 7 2 10 11 7 17 1 20 -8 4z"/>
<path d="M4492 5158 c-7 -7 -12 -20 -12 -29 0 -10 -5 -19 -12 -21 -8 -3 -9 -6
-1 -11 6 -4 17 10 26 33 17 44 17 46 -1 28z"/>
<path d="M4413 5154 c3 -4 2 -16 -4 -28 -10 -20 -10 -20 5 -2 19 24 20 36 4
36 -6 0 -8 -3 -5 -6z"/>
<path d="M6130 5145 c0 -5 5 -17 10 -25 5 -8 10 -10 10 -5 0 6 -5 17 -10 25
-5 8 -10 11 -10 5z"/>
<path d="M4377 5133 c-10 -9 -9 -23 1 -23 5 0 9 7 9 15 0 17 -1 18 -10 8z"/>
<path d="M5177 5053 c10 -3 9 -12 -3 -35 -23 -45 -12 -43 13 3 l21 39 -21 -1
c-12 0 -16 -3 -10 -6z"/>
<path d="M5222 5018 c-15 -15 -15 -35 0 -44 6 -4 8 -3 5 4 -10 15 2 40 21 45
14 4 14 5 2 6 -9 0 -21 -4 -28 -11z"/>
<path d="M5287 5013 c-4 -3 -7 -11 -7 -17 0 -6 5 -5 12 2 6 6 9 14 7 17 -3 3
-9 2 -12 -2z"/>
<path d="M5313 4991 c-1 -21 0 -22 8 -8 16 27 32 20 25 -10 -5 -21 -4 -24 4
-13 16 25 11 47 -13 52 -18 3 -22 0 -24 -21z"/>
<path d="M5380 4981 c-13 -26 -13 -28 6 -35 9 -4 23 -1 30 5 16 13 19 49 5 49
-5 0 -7 -8 -4 -19 5 -20 -11 -36 -27 -26 -7 4 -7 13 0 26 6 10 8 19 6 19 -3 0
-10 -9 -16 -19z"/>
<path d="M5450 4975 c-14 -17 -7 -45 12 -45 11 0 11 2 0 8 -19 13 -3 45 19 39
11 -3 17 -1 13 4 -8 14 -30 11 -44 -6z"/>
<path d="M5516 4964 c-6 -15 -4 -15 11 -3 10 7 20 15 22 16 2 2 -3 3 -11 3 -9
0 -19 -7 -22 -16z"/>
<path d="M5620 4956 c-15 -42 -11 -55 6 -17 8 19 12 36 9 39 -2 3 -9 -7 -15
-22z"/>
<path d="M5582 4965 c4 -4 3 -16 -3 -26 -5 -11 -7 -19 -5 -19 3 0 10 9 16 19
7 15 7 22 -2 27 -7 4 -10 4 -6 -1z"/>
<path d="M5656 4934 c-10 -26 -7 -34 14 -34 18 0 47 36 37 47 -3 2 -8 -5 -12
-16 -3 -12 -13 -21 -21 -21 -11 0 -13 6 -9 20 7 24 0 27 -9 4z"/>
<path d="M5726 4935 c-9 -26 -7 -32 5 -12 6 10 9 21 6 23 -2 3 -7 -2 -11 -11z"/>
<path d="M5789 4932 c10 -7 11 -14 1 -33 -11 -23 -10 -23 5 -4 17 22 15 37 -6
43 -11 3 -12 2 0 -6z"/>
<path d="M5755 4901 c-3 -5 -2 -12 3 -15 5 -3 9 1 9 9 0 17 -3 19 -12 6z"/>
<path d="M5190 4655 c0 -8 4 -15 9 -15 5 0 11 7 15 15 3 9 0 15 -9 15 -8 0
-15 -7 -15 -15z"/>
<path d="M5175 4619 c-10 -15 3 -25 16 -12 7 7 7 13 1 17 -6 3 -14 1 -17 -5z"/>
<path d="M5156 4574 c-8 -21 -4 -25 14 -14 11 7 12 12 4 20 -8 8 -13 7 -18 -6z"/>
<path d="M5136 4525 c-3 -9 0 -15 9 -15 8 0 15 7 15 15 0 8 -4 15 -9 15 -5 0
-11 -7 -15 -15z"/>
<path d="M5116 4485 c-3 -9 0 -15 9 -15 16 0 20 16 6 24 -5 3 -11 -1 -15 -9z"/>
<path d="M5353 4483 c28 -7 20 -32 -19 -55 -37 -22 -32 -39 11 -37 17 1 17 2
3 6 -24 6 -23 9 14 42 33 30 31 52 -5 50 -17 -1 -18 -2 -4 -6z"/>
<path d="M5414 4455 c-31 -31 -29 -69 3 -73 14 -2 26 4 33 18 13 24 6 40 -18
40 -15 1 -15 2 2 15 10 8 23 12 27 9 5 -3 9 0 9 5 0 19 -30 12 -56 -14z m26
-39 c0 -8 -5 -18 -11 -22 -14 -8 -33 11 -25 25 10 16 36 13 36 -3z"/>
<path d="M5519 4461 c7 -5 10 -14 7 -20 -10 -16 -24 -13 -29 7 -4 13 -5 11 -6
-5 -1 -26 20 -31 39 -8 13 15 6 35 -13 35 -8 0 -7 -3 2 -9z"/>
<path d="M5089 4410 c-9 -31 -10 -43 -1 -52 19 -19 14 -73 -10 -103 -21 -26
-21 -27 -1 -17 43 23 70 100 42 118 -7 4 -9 23 -5 50 7 55 -9 58 -25 4z"/>
<path d="M5606 4429 c-33 -26 -35 -66 -3 -78 12 -5 27 -6 32 -2 6 3 0 7 -12 9
-12 2 -24 11 -28 20 -9 24 37 62 67 55 18 -4 20 -3 8 6 -22 15 -34 14 -64 -10z"/>
<path d="M3526 4024 c-3 -8 -2 -12 4 -9 6 3 10 -5 10 -19 0 -32 16 -42 29 -17
16 29 13 38 -4 15 -14 -18 -14 -18 -15 8 0 31 -15 45 -24 22z"/>
<path d="M3506 3983 c-6 -14 -5 -15 5 -6 7 7 10 15 7 18 -3 3 -9 -2 -12 -12z"/>
<path d="M3590 3981 c-13 -25 -13 -31 2 -31 6 0 8 3 5 6 -3 4 -2 15 4 25 5 11
7 19 5 19 -3 0 -10 -9 -16 -19z"/>
<path d="M3630 3979 c-7 -11 -10 -23 -7 -25 2 -2 9 7 15 21 14 30 7 33 -8 4z"/>
<path d="M3660 3978 c0 -19 2 -20 10 -8 13 19 13 30 0 30 -5 0 -10 -10 -10
-22z"/>
<path d="M3771 3952 c-10 -19 2 -42 23 -42 5 0 1 7 -10 15 -18 14 -18 14 9 15
17 0 27 5 27 15 0 8 -5 15 -11 15 -5 0 -7 -4 -4 -10 3 -5 -1 -10 -10 -10 -9 0
-13 5 -10 10 3 6 4 10 1 10 -3 0 -10 -8 -15 -18z"/>
<path d="M3736 3943 c-6 -14 -5 -15 5 -6 7 7 10 15 7 18 -3 3 -9 -2 -12 -12z"/>
<path d="M3836 3943 c-6 -14 -5 -15 5 -6 7 7 10 15 7 18 -3 3 -9 -2 -12 -12z"/>
<path d="M3910 3949 c0 -5 5 -7 10 -4 6 3 10 8 10 11 0 2 -4 4 -10 4 -5 0 -10
-5 -10 -11z"/>
<path d="M3866 3925 c-9 -26 -7 -32 5 -12 6 10 9 21 6 23 -2 3 -7 -2 -11 -11z"/>
<path d="M3947 3933 c-10 -9 -9 -23 1 -23 5 0 9 7 9 15 0 17 -1 18 -10 8z"/>
<path d="M3981 3924 c0 -11 3 -14 6 -6 3 7 2 16 -1 19 -3 4 -6 -2 -5 -13z"/>
<path d="M4010 3920 c0 -8 5 -22 10 -30 9 -13 10 -13 10 0 0 8 -5 22 -10 30
-9 13 -10 13 -10 0z"/>
<path d="M3730 3815 c-5 -14 -10 -28 -10 -30 0 -2 20 -13 45 -25 165 -80 111
-334 -91 -427 -133 -61 -255 -29 -305 82 -23 51 -23 86 1 155 13 39 16 58 8
67 -53 64 -116 -159 -74 -259 93 -219 463 -161 591 93 66 129 32 285 -73 338
-69 34 -81 35 -92 6z"/>
<path d="M3631 3647 c-13 -21 -12 -21 5 -5 10 10 16 20 13 22 -3 3 -11 -5 -18
-17z"/>
<path d="M3679 3623 c-13 -16 -12 -17 4 -4 16 13 21 21 13 21 -2 0 -10 -8 -17
-17z"/>
<path d="M3648 3593 c7 -3 16 -2 19 1 4 3 -2 6 -13 5 -11 0 -14 -3 -6 -6z"/>
<path d="M3492 3514 c9 -3 19 -13 22 -22 3 -12 4 -12 3 3 -1 12 -10 21 -22 22
-15 1 -15 0 -3 -3z"/>
<path d="M3540 3491 c-14 -28 -13 -31 13 -30 16 1 18 2 5 6 -14 4 -16 8 -8 24
6 10 8 19 6 19 -3 0 -10 -9 -16 -19z"/>
<path d="M3466 3484 c-4 -9 -4 -19 -1 -22 2 -3 7 3 11 12 4 9 4 19 1 22 -2 3
-7 -3 -11 -12z"/>
<path d="M3615 3491 c-3 -5 -1 -12 5 -16 5 -3 10 1 10 9 0 18 -6 21 -15 7z"/>
<path d="M3665 3471 c-3 -5 -2 -12 3 -15 5 -3 9 1 9 9 0 17 -3 19 -12 6z"/>
<path d="M3630 3440 c-8 -5 -12 -12 -9 -15 4 -3 12 1 19 10 14 17 11 19 -10 5z"/>
<path d="M2960 2847 c-51 -26 -49 -98 4 -96 21 0 21 0 -1 11 -46 22 -19 85 32
76 28 -6 34 6 9 16 -19 7 -14 8 -44 -7z"/>
<path d="M3117 2818 c-3 -7 -12 -30 -21 -50 -9 -21 -13 -38 -8 -38 4 0 18 23
29 50 12 28 18 50 13 50 -4 0 -10 -6 -13 -12z"/>
<path d="M3030 2810 c0 -5 5 -9 11 -7 6 1 13 -3 16 -10 2 -7 -7 -13 -24 -15
-36 -4 -38 -32 -2 -36 21 -2 29 3 39 28 11 27 11 33 -1 41 -19 12 -39 11 -39
-1z m20 -50 c0 -5 -7 -10 -15 -10 -8 0 -15 5 -15 10 0 6 7 10 15 10 8 0 15 -4
15 -10z"/>
<path d="M3142 2778 c-19 -19 -14 -55 8 -61 11 -3 20 -1 20 4 0 5 -7 9 -15 9
-8 0 -15 5 -15 10 0 6 14 10 30 10 23 0 30 4 30 20 0 23 -38 28 -58 8z m43 -8
c3 -5 -3 -10 -15 -10 -12 0 -18 5 -15 10 3 6 10 10 15 10 5 0 12 -4 15 -10z"/>
<path d="M3377 2771 c-3 -14 -11 -18 -26 -14 -12 3 -28 0 -36 -7 -19 -16 -20
-60 -1 -60 8 0 21 -2 29 -5 10 -4 20 9 33 42 10 26 21 51 22 55 2 5 -1 8 -6 8
-5 0 -12 -9 -15 -19z m-17 -30 c0 -23 -14 -41 -31 -41 -21 0 -25 20 -7 38 14
14 38 16 38 3z"/>
<path d="M3219 2754 c-5 -15 -12 -31 -15 -35 -3 -5 -1 -9 4 -9 7 0 16 14 40
63 2 4 -1 7 -7 7 -7 0 -16 -12 -22 -26z"/>
<path d="M3266 2767 c3 -8 0 -26 -5 -40 -6 -15 -7 -27 -2 -27 12 0 32 60 25
71 -8 14 -24 10 -18 -4z"/>
<path d="M3423 2739 c25 -15 21 -27 -10 -31 -36 -4 -37 -32 -2 -36 21 -2 29 3
39 27 14 35 7 51 -23 51 -20 -1 -20 -2 -4 -11z m2 -49 c-3 -5 -10 -10 -16 -10
-5 0 -9 5 -9 10 0 6 7 10 16 10 8 0 12 -4 9 -10z"/>
<path d="M3475 2703 c-19 -45 -12 -55 9 -15 9 17 24 32 33 34 15 3 14 5 -5 10
-19 5 -25 0 -37 -29z"/>
<path d="M3530 2690 c-18 -43 -7 -47 13 -5 9 19 13 35 8 35 -5 0 -14 -14 -21
-30z"/>
<path d="M3579 2699 c-28 -28 -21 -54 16 -54 49 0 62 74 13 75 -5 0 -17 -9
-29 -21z m39 -21 c-4 -29 -38 -38 -38 -10 0 22 8 32 27 32 9 0 13 -8 11 -22z"/>
<path d="M2980 2501 c-22 -17 -23 -22 -12 -46 7 -15 15 -25 18 -22 3 3 1 14
-5 25 -9 17 -6 24 17 41 15 11 23 20 17 20 -5 1 -21 -8 -35 -18z"/>
<path d="M3550 2395 c-18 -22 -8 -50 19 -50 28 0 47 25 38 49 -8 20 -40 21
-57 1z m44 -4 c8 -13 -20 -45 -33 -37 -8 5 -8 13 -1 27 11 20 25 25 34 10z"/>
<path d="M3681 2367 c-14 -35 -14 -47 -1 -47 6 0 9 3 9 8 -3 18 2 32 12 32 5
0 9 -10 7 -22 -4 -26 29 -38 43 -16 17 27 9 40 -11 17 l-20 -24 6 29 c5 20 3
27 -4 22 -6 -3 -15 2 -21 11 -9 16 -11 15 -20 -10z"/>
<path d="M3622 2368 c-19 -19 -14 -38 11 -37 12 0 16 3 10 6 -7 2 -13 12 -13
20 0 9 6 13 15 9 8 -3 15 -1 15 4 0 14 -24 12 -38 -2z"/>
<path d="M3771 2339 c-14 -41 -15 -39 13 -39 31 0 44 33 22 55 -20 21 -22 19
-35 -16z m33 -14 c-6 -16 -24 -21 -24 -7 0 11 11 22 21 22 5 0 6 -7 3 -15z"/>
<path d="M3831 2323 c-14 -31 -7 -43 9 -14 14 27 30 27 23 1 -7 -27 24 -38 41
-14 16 22 9 47 -11 40 -8 -3 -22 -2 -32 4 -15 7 -21 4 -30 -17z m62 -18 c-3
-9 -8 -14 -10 -11 -3 3 -2 9 2 15 9 16 15 13 8 -4z"/>
<path d="M3964 2328 c-5 -8 -2 -9 9 -5 27 10 19 -12 -8 -25 -30 -14 -33 -28
-4 -28 11 0 18 4 15 8 -3 5 4 16 15 25 21 18 18 37 -6 37 -8 0 -17 -5 -21 -12z"/>
<path d="M4028 2318 c-23 -19 -29 -45 -13 -58 11 -9 18 -7 35 10 34 34 14 77
-22 48z m13 -41 c-17 -17 -24 -1 -10 25 12 21 14 21 17 4 2 -10 -1 -23 -7 -29z"/>
<path d="M4095 2311 c-3 -5 3 -11 12 -13 14 -3 11 -8 -15 -25 -26 -16 -30 -22
-17 -27 25 -9 37 -7 30 5 -4 6 1 16 11 23 10 8 15 20 11 30 -7 18 -23 21 -32
7z"/>
<path d="M4160 2300 c-13 -8 -12 -10 4 -10 14 0 16 -3 7 -13 -6 -8 -7 -17 -3
-22 4 -4 -3 -5 -16 -2 -15 3 -22 1 -19 -6 7 -23 40 -12 50 16 11 33 -1 51 -23
37z"/>
<path d="M4756 2183 c5 -25 2 -33 -16 -43 -12 -6 -19 -14 -17 -17 8 -7 57 28
57 41 0 7 -7 21 -15 32 -14 18 -14 17 -9 -13z"/>
<path d="M2781 1974 c0 -11 3 -14 6 -6 3 7 2 16 -1 19 -3 4 -6 -2 -5 -13z"/>
<path d="M3400 1906 c0 -2 7 -7 16 -10 8 -3 12 -2 9 4 -6 10 -25 14 -25 6z"/>
<path d="M3406 1865 c4 -8 8 -15 10 -15 2 0 4 7 4 15 0 8 -4 15 -10 15 -5 0
-7 -7 -4 -15z"/>
<path d="M3687 1828 c-9 -31 -2 -33 11 -3 6 14 8 25 3 25 -5 0 -11 -10 -14
-22z"/>
<path d="M3950 1786 c0 -2 8 -10 18 -17 15 -13 16 -12 3 4 -13 16 -21 21 -21
13z"/>
<path d="M4160 1721 c0 -10 19 -25 25 -20 1 2 -3 10 -11 17 -8 7 -14 8 -14 3z"/>
<path d="M4220 1722 c0 -4 9 -8 19 -8 11 0 17 4 15 8 -3 4 -12 8 -20 8 -8 0
-14 -4 -14 -8z"/>
<path d="M4470 1706 c0 -2 7 -7 16 -10 8 -3 12 -2 9 4 -6 10 -25 14 -25 6z"/>
<path d="M2650 1693 c0 -19 21 -27 33 -13 9 10 9 11 -2 5 -8 -4 -17 -2 -22 6
-6 9 -9 10 -9 2z"/>
<path d="M2931 1643 c-1 -23 22 -32 34 -13 3 5 0 7 -9 4 -8 -3 -16 2 -19 13
-4 14 -5 14 -6 -4z"/>
<path d="M3015 1639 c-4 -6 -5 -12 -2 -15 2 -3 7 2 10 11 7 17 1 20 -8 4z"/>
<path d="M3233 1608 c-2 -18 0 -20 7 -8 12 18 13 30 2 30 -4 0 -9 -10 -9 -22z"/>
<path d="M3286 1583 c-6 -14 -5 -15 5 -6 7 7 10 15 7 18 -3 3 -9 -2 -12 -12z"/>
<path d="M3791 1504 c0 -11 3 -14 6 -6 3 7 2 16 -1 19 -3 4 -6 -2 -5 -13z"/>
<path d="M4071 1463 c-1 -6 -4 -20 -7 -30 -5 -17 -5 -17 6 0 6 10 9 23 6 30
-3 9 -5 9 -5 0z"/>
<path d="M2561 1434 c0 -11 3 -14 6 -6 3 7 2 16 -1 19 -3 4 -6 -2 -5 -13z"/>
<path d="M4115 1430 c3 -5 8 -10 11 -10 2 0 4 5 4 10 0 6 -5 10 -11 10 -5 0
-7 -4 -4 -10z"/>
<path d="M2590 1416 c0 -2 7 -7 16 -10 8 -3 12 -2 9 4 -6 10 -25 14 -25 6z"/>
<path d="M4351 1404 c0 -11 3 -14 6 -6 3 7 2 16 -1 19 -3 4 -6 -2 -5 -13z"/>
<path d="M4400 1399 c0 -5 5 -7 10 -4 6 3 10 8 10 11 0 2 -4 4 -10 4 -5 0 -10
-5 -10 -11z"/>
<path d="M4397 1373 c-4 -3 -7 -11 -7 -17 0 -6 5 -5 12 2 6 6 9 14 7 17 -3 3
-9 2 -12 -2z"/>
<path d="M2853 1355 c-3 -9 -3 -18 -1 -21 3 -3 8 4 11 16 6 23 -1 27 -10 5z"/>
<path d="M3391 1274 c0 -11 3 -14 6 -6 3 7 2 16 -1 19 -3 4 -6 -2 -5 -13z"/>
<path d="M3416 1251 c-4 -5 3 -7 14 -4 23 6 26 13 6 13 -8 0 -17 -4 -20 -9z"/>
</g>
</svg>
