<svg width="35" height="35" viewBox="0 0 35 35" fill="none" xmlns="http://www.w3.org/2000/svg">
<rect width="34.6883" height="34.4337" rx="5" fill="#FEF5F5"/>
<path d="M28.9069 22.0262C28.9069 26.2041 26.3978 28.6948 22.189 28.6948H20.813C20.177 28.6948 19.6567 28.1783 19.6567 27.547V20.9243C19.6567 20.6144 19.9111 20.3504 20.2233 20.3504L22.2583 20.316C22.4202 20.3045 22.559 20.1897 22.5937 20.029L22.9984 17.8367C23.0062 17.787 23.0031 17.7362 22.9893 17.6879C22.9755 17.6395 22.9512 17.5946 22.9183 17.5564C22.8853 17.5183 22.8443 17.4876 22.7983 17.4667C22.7522 17.4457 22.7021 17.4349 22.6515 17.435L20.1886 17.4694C19.8648 17.4694 19.6105 17.2169 19.5989 16.907L19.5526 14.0949C19.5526 13.9113 19.703 13.7506 19.8995 13.7506L22.6746 13.7047C22.8712 13.7047 23.0215 13.5555 23.0215 13.3603L22.9752 10.6056C22.9752 10.4105 22.8249 10.2613 22.6283 10.2613L19.5064 10.3072C19.0507 10.3141 18.6008 10.4102 18.1825 10.5899C17.7643 10.7697 17.3858 11.0297 17.069 11.3549C16.7521 11.6801 16.503 12.0642 16.3359 12.4851C16.1688 12.9061 16.0871 13.3556 16.0954 13.808L16.1532 16.9644C16.1648 17.2858 15.9104 17.5383 15.5866 17.5498L14.1991 17.5727C14.0025 17.5727 13.8522 17.7219 13.8522 17.9171L13.8869 20.0979C13.8869 20.293 14.0372 20.4422 14.2338 20.4422L15.6213 20.4193C15.9451 20.4193 16.1994 20.6718 16.211 20.9817L16.3151 27.5241C16.3266 28.1668 15.8063 28.6948 15.1588 28.6948H12.4993C8.2905 28.6948 5.78137 26.2041 5.78137 22.0147V12.4077C5.78137 8.22972 8.2905 5.73901 12.4993 5.73901H22.189C26.3978 5.73901 28.9069 8.22972 28.9069 12.4077V22.0262Z" fill="#204E51"/>
</svg>
