<svg width="35" height="35" viewBox="0 0 35 35" fill="none" xmlns="http://www.w3.org/2000/svg">
<rect width="34.6883" height="34.4337" rx="5" fill="#FEF5F5"/>
<path d="M22.189 5.73901H12.4994C8.29056 5.73901 5.78143 8.22972 5.78143 12.4077V22.0147C5.78143 26.2041 8.29056 28.6948 12.4994 28.6948H22.1775C26.3863 28.6948 28.8954 26.2041 28.8954 22.0262V12.4077C28.907 8.22972 26.3979 5.73901 22.189 5.73901ZM17.3442 21.6703C14.8698 21.6703 12.8579 19.6732 12.8579 17.2169C12.8579 14.7606 14.8698 12.7635 17.3442 12.7635C19.8187 12.7635 21.8306 14.7606 21.8306 17.2169C21.8306 19.6732 19.8187 21.6703 17.3442 21.6703ZM24.1894 11.3402C24.1316 11.478 24.0506 11.6042 23.9466 11.719C23.8309 11.8223 23.7037 11.9026 23.565 11.96C23.3546 12.0487 23.1223 12.0731 22.8978 12.0302C22.6733 11.9873 22.4668 11.8789 22.3047 11.719C22.2006 11.6042 22.1196 11.478 22.0618 11.3402C22.0024 11.2023 21.971 11.0541 21.9693 10.9041C21.9693 10.7549 22.004 10.6056 22.0618 10.4679C22.1196 10.3187 22.2006 10.2039 22.3047 10.0891C22.5706 9.82515 22.9753 9.69889 23.3453 9.77924C23.4262 9.79071 23.4956 9.81367 23.565 9.8481C23.6344 9.87106 23.7037 9.90549 23.7731 9.9514C23.8309 9.98584 23.8888 10.0432 23.9466 10.0891C24.0506 10.2039 24.1316 10.3187 24.1894 10.4679C24.2472 10.6056 24.2819 10.7549 24.2819 10.9041C24.2819 11.0533 24.2472 11.2025 24.1894 11.3402Z" fill="#204E51"/>
</svg>
